<?xml version="1.0" encoding="UTF-8"?>
<svg id="Layer_3" xmlns="http://www.w3.org/2000/svg" version="1.1" viewBox="0 0 1080 1080">
  <!-- Generator: Adobe Illustrator 29.5.1, SVG Export Plug-In . SVG Version: 2.1.0 Build 141)  -->
  <defs>
    <style>
      .st0 {
        fill: #fef7e1;
      }
    </style>
  </defs>
  <g id="white-fill">
    <g>
      <path class="st0" d="M860.5,449.6c2.9,4.4,2.7,13.4,2.4,17.2,0,1.1-1,1.9-2.1,1.8-.3,0-.5,0-.8-.1-7.8-1.7-12.8,2.2-18.3,7.4-9.4,8.8-15.2,16.9-22.3,27.1,0,.1-.1.2-.2.3-1.1,1.7-3.8.7-3.5-1.3,1.1-10.1,4.8-28.6,17-39.2,6.5-6.2,12.5-11.5,20.6-13.7,2.5-.7,4-1.1,6.5-.6,0,0,.8,1.1.8,1.1Z"/>
      <path class="st0" d="M861.5,490.6c2.8,26.4.8,52.3-5.2,77.9-4.4,18.5-11.5,35.9-21.4,52.3-5.8,9.5-10.3,19.9-16.5,29.1-4.4,6.4-9.4,12.4-17.1,15.4-3.4,1.4-6.6,2-10,1.3-.3,0-.6-.2-.8-.4-2.5-2-2.7-4.6-2.3-7.5,1.5-12.9,3.7-25.7,5.7-38.5,3.3-21.5,8.7-42.4,14-63.4.4-1.5,1.2-6.4,2.1-10.3.4-1.6,2.5-2.1,3.5-.7,3.9,5.6,6,11.3,6.6,17.7.8,9.1-3.9,16.5-7.6,24.3-3.5,7.4-8.5,14.4-7,23.2,0,.4.2.7.5,1,3.2,3.5,6.4,2,8.9-.7,3-3.2,5.7-6.9,8.2-10.6,3.3-5.1,6.3-10.2,8.9-15.7.8-1.6,1.5-3.3,2.2-5,1.9-4.7,3.6-9.5,5.3-14.3,1.9-5.5,2.4-12.1,2-17.9-.4-5.9-1.8-11.7-4.3-17.1-5.8-12.6-1.8-22.2,5.6-31.5,3.9-4.9,6.4-11.7,13.7-13.3.4,0,.9,0,1.3.2,1.6.8,2.7,2.3,3.6,3.7.2.3.3.6.3.9Z"/>
      <path class="st0" d="M466.7,488.5c1.6,1.6,7.2,3.3,7.2,5.8-.2,16.1,1,31.9-2.4,47.8-2.1,10-4.8,20-6.2,30.2-1.2,8.5-.2,18.6-5.4,26-2.4,3.4-5.6,5.9-7.6,9.5-6.3,11.3-11.5,23.5-13.3,36.3-1.6,11.4.2,23.3,11.6,29.7,9.6,5.4,19.2,10.6,28.3,16.8,5.6,3.8,11.3,7.4,17.8,8.9,19.4,4.5,36.7.2,52.1-12.7,5.2-4.4,11.3-7.9,17.2-11.4,7.3-4.3,15.6-4.8,23.9-5.5,8.1-.8,13.9-4.7,17.5-12.6,5.3-11.7,1.5-22.4-2.5-33.1-2.1-5.7-5-11.3-10-15.1-.5-.3-1.1-.4-1.6-.3-1.1.3-1.8.8-2.4,1.5-.4.5-.5,1.2-.3,1.8,3.1,12.6,6.8,25.2,1.5,37.5-4.4,1.5-7.8,1.1-11.2,1-10.2-.4-19.9,2.1-28.1,7.6-6.8,4.6-13.9,6.9-21.8,8-3.7.5-6.9.3-10.2-2-7.5-5.4-14.5-11.6-22.5-16.4-6.5-3.9-8.9-10.4-8.3-17.2.5-5.2,1.4-10.6,2.7-15.8,2.2-9.1,5.7-18,7.1-27.2,2.2-15,3.2-30.3,4.3-45.4.6-9.2-.1-18.5.7-27.6,1.8-20.3-1-39.7-8.9-58.4-4.4-10.5-11-18.7-22.9-21.6-5.6-1.4-11.5-2.2-16.9-4.2-14.3-5.2-29.3-7.9-43.9-12.1-5.8-1.7-11.5-4.1-17.3-4.9-11.1-1.6-21.5-5.9-32.4-8-7.3-1.4-14.4-3.2-21.9-3.1-6.9.1-12.8,2.2-16.8,8.1-9,13.2-18.1,26.3-26.8,39.6-3,4.6-2,10.3,1.7,13.3,1.1.8,2.7.7,3.5-.4,4.7-5.9,10.5-11,16.5-15.9,9.3-7.8,19-12.6,31.2-10.3,9.7,1.8,19.4,3.6,28.9,6.1,15.3,4,30.6,8.2,45.6,13.2,6.5,2.2,13.4,3,19.5,6.8,3.8,2.3,6.9,5.6,9.6,9.1,4,5.3,7.5,10.6,12.1,15.4.4.4.9.9,1.3,1.3ZM463.5,488.3c-11.7-7.2-24.1-12.6-37.3-12.6-21.4,0-42.9-3.2-64.1,4.3-11.2,4-22.3,7.7-32.7,13.4-4.2,2.3-8.4,3.8-12.3,7.6,3.2,5.3,7.4,6.5,15,4.9,7.9-2,19-4.1,29-8.8,5.6,1.2,9.3.7,13.7,2.5,1.3.7,2,1.9,2.5,3.2,2.2,5.3,6.2,8,11.7,8.9,6.7,1.1,13.6,1.3,20.1.2,13.1-2.2,20.7-9,17.6-17.2,3.8-2.1,7.3-1.9,11.1.6,6.1,3.9,12,8.1,18.6,10.9.7.3,1.4.2,2-.2,4.7-3,7.5-6.9,2.1-10.7-.7-.5-1.9-1.7-1.1-2.2.8-.2,3.2.9,3.7.6,1.3-.8,3-1.5,1.1-4.4,0,0-.2-.4-.5-.7ZM799.4,464.2c.1,12.7-2.9,25.8-3.1,38.5-.3,17.2-4.7,33.7-6.2,50.6-.9,9.5-4.4,18.6-7.4,27.8-5.3,16.4-13.2,31.6-19.7,47.5-6.6,16.3-13,32.8-18.8,49.4-5.9,17.1-9.1,34.9-12.1,52.7-.6,3.8-1.5,7.5-2.3,11.2-.5,2.3,2.8,3.4,3.7,1.2,12.2-29.5,20.3-60.7,33.9-90.9.8-1.8,3.5-1.4,3.7.6.9,7.6-.1,14.3-1.4,21-2.2,11.9-4,23.7-3.9,35.9,0,5.7-1.5,11.5-2.4,17.2-1.8,11-2.8,22-6.2,32.8-4.1,12.7-10.2,24.2-16.7,35.6-8.8,15.5-20.6,29-31.9,42.4-17.2,20.5-34.6,41.2-55.2,58.6-12.3,10.4-25.5,19.6-40.8,25-16.9,6.3-36.3,6-54.1,6.4-14.7.3-29.4,0-44.1-.8-5.4-.3-10.7-.7-16.1-1.1-20.3-1.7-41.1-4.7-56.5-19.3-12.2-11.6-21.7-25.2-30.5-39.6-8.1-13.3-15.7-26.9-22.8-40.8-6-11.7-12-23.4-17.2-35.5-4.5-10.5-8.6-21.1-13-31.5-4.3-10.1-7.3-20.8-10.7-31.3-2.8-8.7-4.6-17.6-5.2-26.7-.6-8.6-1.2-17.2.5-25.8.4-1.8.8-3.6.1-5.2-.6-1.4-2.4-1.6-3.3-.4-4.1,5-4.8,11.6-7.4,17.7-.7,1.6-3.1,1.5-3.6-.1-2.1-6-3.1-11.8-4.1-17.5-2.2-11.9-4.7-23.6-8.9-35-7.1-19-17.1-36.9-23.6-56.1-4-11.7-6.4-24-8.3-36.4-2.9-19.6-2.8-39.3-4.1-58.9-1.8-27.4-1.1-54.8-.8-82.2.2-19,.7-38.2,2.7-57.1,7.9-75.4,44.4-143.6,111.8-182.2,18.7-10.7,38.9-18.6,59.6-24.6,59.9-17.3,125.1-18,184.2,1.8,56.4,18.9,118.5,61,142.2,117.4,27.7,66.1,19.6,138.2,20.2,207.9ZM768.4,449.1c-.2-6.4-2-12-5.7-17.4-7.3-10.7-17.5-18.4-27.2-26.5-4.2-3.5-10.4-4.9-16-3.9-11,1.9-21.9,4.2-32.7,7-21.8,5.6-43.5,12-65.4,17.5-7.8,1.9-15.4,5.1-23.3,6.1-7.6.9-14.2,3.9-20.5,7.7-2.6,1.5-8.3,7.3-8,3.1,0-.8-1.5.6-1.6.9-4.9,7.2-4.1,19-5.9,27.3-2.3,10.5-4.8,21.2-4.4,32.1.5,13.4-.8,26.9,1.4,40.3.3,1.7.4,3.3,1.4,4.3.9.8,2.3.3,2.6-.8,3.9-19.7,1.6-40.2,9.3-58,.8-1.8,2-3.4,3.7-4.3,2-1.1,4.1-1.5,6-1.4.8,0,1.4.7,1.4,1.4-.2,3.5,2.7,5.9,5.5,4.1.5-.4,1.2-.7,1.6-1.2,8.2-10.6,16.1-21.4,29.9-25.4,2.4-.7,4.7-1.4,7.1-2.1,22.5-6.7,44.9-13.6,67.9-18.5,10.7-2.3,21.8-5.3,32.8-4.1,10.2,1.1,19.6,5.2,28.1,10.9,2.1,1.4,4.4,2.1,6.7,3,2.2,1,4.5.7,5.7-1.9ZM746.7,504.1c.4-1,0-2.1-.8-2.8-8.6-6.8-18.4-12-28.6-15.8-11.9-4.5-24.6-6.1-37.1-8.3-2.9-.5-5.7-1.1-8.6-1.5-9.4-1.2-18.8-.5-28.1.8-.8.1-1.6.2-2.4.3-9.8,1.4-19.7,2.6-28.9,6.3-3.8,1.6-7.5,3.5-10.9,5.9-3,2.1-9.5,5.6-7.8,10.2.5,1.4,1.9,2.4,3.4,2.9,3,1,7,.9,10.1.7,3.5-.2,6.9-.8,10.1-2.3,5.2-2.4,10.2-5.6,15.9-6.8,1-.2,3.5.3,4.1,1.1,1.2,1.7,1.3,3.3,1.8,5.4.5,2.2.4,3.9,1.9,5.8,1.4,1.7,3.4,2.8,5.5,3.6,4.4,1.8,9.5,2.1,14.2,2.5,4.9.4,9.8.3,14.6,0,6.8-.6,12.1-5.4,14.6-11.6.4-.9,1.2-1.5,2.2-1.5,4.3-.1,8.3,0,12.5,1.3,8.8,2.6,17.8,4.1,26.4,7.4,3,1.1,6.7.7,10,.4,2.4-.2,4.8-1.1,5.9-3.8ZM713.2,704c.4-7.7-.8-15.3-4.9-22-7-11.6-18.2-19.6-31.4-22.9-2.9-.7-6.2-1.4-9,.9-.7.6-1,1.6-.7,2.5,1.1,3.1,3,5.8,5.3,8.1,2.5,2.4,5.4,4,8.1,6.1,12,8.8,19.1,22.3,20.2,37,.3,3.6.2,7.3,1.8,10.7.6,1.3,2.2,1.8,3.4,1,3-1.8,4.6-5.1,5.2-8.4.8-4,1.4-8,1.7-12,0-.3,0-.6,0-.9ZM695.1,542.4c1.2-1.1.5-3.2-1.1-3.3-3.9-.3-7.5,0-11.4.2-3.9.2-7.7.3-11.6.3-12.1,0-24.1-1.8-36.1-2.6-1.3,0-2.6-.2-4-.2-.8,0-.9,0-.9,0,0,0-1.6.3-.6,1.7.4.5.9,1,1.4,1.4,1.1.9,2.3,1.6,3.6,2.1,1.8.8,3.8,1.4,5.7,2,7.1,2,14.9,2.8,22,3.2,8.5.6,18,.9,26.2-1.3,1.9-.5,3.8-1.2,5.4-2.3.2-.1.7-.6,1.3-1.1ZM675.8,728.7c5.2-7.1,1-15.1-5.6-17.9-6-2.4-10.2.8-13.5,5.4-3.4,4.6-11,7.5-16.3,8.6-15,3.1-30.2,4.4-45.4,4.1-18.7-.3-37.2.9-55.7,3.7-10.4,1.6-21.2,1.3-31.6-.1-12-1.6-23.9-3.4-36.1-3.5-11.5-.1-23-.2-34.4,0-7.1.1-13.5-2.2-18.4-6.9-5.2-4.9-11.1-7.1-17.6-8.2-1.8-.3-3.7,0-5.4.9-.2.1-.5.2-.7.4-2.2,1.1-3.9,3.1-4.6,5.6-.7,2.7-.6,5.3.3,7.9.8,2.4,2.8,4.3,5.2,5.2,3.4,1.2,6.8,2,10.5,1.1,1.4-.3,3.3-.1,4.6.6,18.4,10,38.6,12.1,59.7,12.8,23.5-1.6,46.4,1.8,69.3.3,23.7-1.5,47.5-1.9,71.1-4.4,12.7-1.4,25.5-2.4,37.1-8.2,4.9-2.4,9.8-2.9,15-2.5,4.6.4,9.5-.9,12.3-4.8ZM598.7,781.1c-.9-3.6-3.8-2.2-5.5-1.9-11,2.1-22.1,3-33.1,4.3-15.5,1.8-30.8,2.7-46.3,1.5-17.6-1.4-35.5-.5-52.5-6.5-2-.7-3.5-.5-4.6,1.3-.3,1.9,1.1,3,2,4.1,12,13.9,26.7,22.7,45.4,23.7,12.8.7,25.5.5,38.3.4,23.3,0,41.3-9.6,56.2-27ZM520.4,441.6c2.3-6.5,5.7-11.8,3.7-17.9-1.8-5.6.6-12.5-4-18.2-.7-.9-2.2-.4-2.3.7-.6,6.3-.2,12.5-.2,18.7,0,1.5,0,3,0,4.5,0,4.1-.6,8,.2,12.1.3,1.3,2.1,1.4,2.5.1ZM424.3,538.6c.5-.7.2-1.7-.6-2.1-1.3-.5-2.5,0-3.8.2-14.6,2.9-27.4,2.7-31.5,2.7-4.5,0-9.1-.8-13.6-.5-1.8.1-2.3,2.4-.8,3.3,13.2,7.8,43.7,5.5,50.2-3.6ZM392.1,675.2c2.4-2.7,3.2-4.7,2.2-7-2.5-5.6-10.7-1.1-14.6,1.6-.4.3-.7.5-1,.7-1.5,1.2-3,2.5-4.4,3.8-6,5.7-10,12.4-11.6,20.6-1.4,7.5-.8,15.3.8,22.8,0,0,0,.1,0,.2,1,4.3,6.9,5,9,1.1,1.9-3.6,3.2-7.3,3.4-11.7.2-4.5,1.3-9.1,3-13.6,2.9-7.4,8-12.8,13.1-18.4Z"/>
      <path class="st0" d="M356.2,807.1s0,0,0,0c.2,1.8-2,2.9-3.3,1.6-7.6-7.8-13.8-16.8-18.7-26.6-8.6-17.4-12.3-36.1-15.7-55-2.6-14.6-2.8-29.9-8.7-43.9,0,0,0,0,0,0-.9-2.3,2.4-3.8,3.5-1.6,2.3,4.3,4.5,8.5,6.7,12.7,5,9.6,7.2,20.1,10.1,30.4,2.9,10.1,6.3,20,9.3,30.1,4.7,15.6,9.5,31.2,14.1,46.8.6,1.9,1.7,3.4,2.5,5,0,.2.2.4.2.6Z"/>
      <path class="st0" d="M281.7,639c.3,3.1.7,6.2,0,9.5-.2.9-1,1.6-2,1.5-3-.1-5.1-2.3-7.1-4.1-8.4-8-15.2-17.6-17.4-28.9-1.5-8-4.2-15.1-7.3-22.4-4-9.4-9.2-18.3-11.9-28.3-3.7-13.4-7.4-26.8-7.6-40.7-.2-13.2,0-26.4,0-39.3,0-.9.7-1.8,1.6-1.9,1.5-.2,2.1.8,2.8,1.9,4.6,8.3,8.8,16.9,14.4,24.6,4.6,6.2,1.7,12.9-.6,19.3-4.1,11.1-1.7,23.8,2.2,34.6,1.8,4.9,3.8,9.9,6.2,14.9,4.7,9.5,10.8,18.6,19,24.7,4.3,3.2,5.3,10.7,5.7,14.8.9,7.6,1.3,12.5,2.1,20.1Z"/>
      <path class="st0" d="M251.6,466.7c5.5,7.3,8.9,16.6,6.9,25.7-.3,1.5-.5,5.2-3.2,1-2.7-4.2-5.7-7.9-8.4-12-1.2-1.8-2.5-3.6-3.9-5.2-2-2.4-4.1-4.6-6.3-6.7-1.8-1.7-4-3.2-5.7-5.1-1.7-1.9-4.2-5.1-3.7-7.8.5-2.7,1.7-5.4,4.9-4.4,7.8,2.4,14.5,8,19.4,14.4Z"/>
    </g>
  </g>
  <g id="line">
    <g>
      <path d="M779.8,740.1c0,0,0,.1,0,.2-1.9,13-4.9,25.1-9.6,36.7-3.9,9.6-9.6,18.1-15.4,26.7-11.5,16.8-24.3,32.5-37.6,47.9-11.1,12.9-21.8,26.1-33.7,38.2-12.5,12.7-25.6,24.9-40,35.6-7.7,5.7-15.4,11.2-24.3,15.2-9.8,4.4-20.3,5.7-30.5,7.2-23.1,3.3-46.4,3.5-69.9,2.2-16.7-.9-33-3.3-49.3-6.2-14.8-2.7-27.6-10.1-38.4-20.6-21.6-21-42.1-42.9-62.1-65.4-12.7-14.3-25.8-28.3-37.5-43.4-11.2-14.4-21.7-29.6-26-47.7-3.6-15.2-5.8-30.7-8.5-46.1-1.9-10.8-3.7-21.5-5.3-32.3-.3-2.2-1.3-4.2-2-6.3s-.5-.9-1-1.2c-9.4-4.5-18.5-9.4-26-16.3-8.9-8.1-15.5-18.1-20.4-29.4-5.1-11.6-10.6-23-15.2-34.8-5.4-13.9-10.3-27.9-13.2-42.7-2.6-12.9-4.6-25.9-6.9-38.9-1.4-8.1-2.3-16.4-2-24.8.6-13.4-1.5-27,1.5-40.3,1.9-8.4,3.8-16.9,11.4-22.7,5.3-4.1,14.2-5.4,20.5-2.6,13.3,5.9,18.2,12.6,18.2,12.6,0,0-.2-4.6-.2-5.6-1.6-32.7-2.4-66.9,2.8-99.3,5.1-31.9,15.6-62.9,30.8-91.3s12.1-21,19.1-30.9c6.1-8.5,12.9-16.6,20.6-23.7,20.5-18.8,40.9-34.4,65.7-47.1,35.6-18.2,74.6-31.6,114.4-36.1,66.7-7.5,143.3,8.3,198.5,47.7,16.8,12,32.9,24.7,47.6,39.2,10.2,10,19.7,20.6,27.5,32.5,5.9,9.1,10.6,19,14.9,29,5,11.6,9.5,23.5,12.8,35.8,3.2,12.3,5.9,24.7,8,37.2,4.1,24.5,4.5,49.1,3.9,73.8-.3,12.1-1.3,24.2-2,36.2,0,.6,0,1.9,0,3.4s2.1,2.4,3.3,1.3c3-3,6.2-6,8.8-8,4-2.9,7.8-6.1,12.4-7.9,13.6-5.2,24.3-.3,31.1,12.9,4.1,7.9,5.3,16.4,5.7,24.7.7,16.7,1.8,33.3-.3,50.3-1.9,15.3-4.2,30.5-6.5,45.8-1.5,9.9-4.9,19.5-7.8,29.1-3.9,13.2-8.8,26.1-15.3,38.4-6.7,12.6-14.1,24.7-22.7,36.3-6.2,8.3-13.2,14.8-23,18.5-4.5,1.7-9,2.7-13.7,3.2-2.6.2-5.1.5-7.2,3s-.3.6-.4.9c-2.7,16.1-4.8,32.8-5.7,50.2ZM514.3,926.7c14.7.8,29.4,1.1,44.1.8,17.8-.4,37.2,0,54.1-6.4,15.2-5.4,28.5-14.5,40.8-25,20.6-17.5,37.9-38.1,55.1-58.6,11.3-13.5,23.1-26.9,31.9-42.4,6.5-11.4,12.6-22.9,16.7-35.6,3.4-10.8,4.5-21.8,6.2-32.8.9-5.7,2.5-11.5,2.4-17.2-.1-12.2,1.6-24,3.9-35.9,1.3-6.7,2.2-13.4,1.4-20.9s-2.9-2.4-3.7-.6c-13.6,30.2-21.7,61.4-33.9,90.9s-4.2,1.2-3.7-1.2c.8-3.7,1.7-7.4,2.3-11.2,3-17.8,6.2-35.6,12.1-52.7,5.8-16.6,12.2-33.1,18.8-49.4,6.4-15.9,14.3-31.1,19.7-47.5,3-9.2,6.5-18.3,7.3-27.8,1.6-16.9,6-33.4,6.2-50.6.2-12.8,3.2-25.8,3.1-38.5-.6-69.8,7.5-141.9-20.2-207.9s-85.7-98.5-142.2-117.4c-59.1-19.8-124.3-19.1-184.2-1.8-20.7,6-40.9,13.9-59.6,24.6-67.4,38.6-103.9,106.7-111.8,182.2-2,18.9-2.5,38-2.7,57.1-.3,27.4-1.1,54.8.8,82.2,1.3,19.6,1.2,39.3,4.1,58.9,1.8,12.4,4.3,24.6,8.3,36.4,6.5,19.2,16.6,37,23.6,56.1,4.2,11.4,6.7,23.1,8.9,35,1.1,5.7,2.1,11.5,4.1,17.5s2.9,1.8,3.6.2c2.6-6.2,3.4-12.7,7.5-17.7s2.8-1,3.3.4.2,3.5-.1,5.2c-1.7,8.6-1.1,17.2-.5,25.8s2.4,18.1,5.2,26.7c3.4,10.5,6.4,21.2,10.7,31.3,4.5,10.5,8.6,21.1,13,31.5,5.2,12.1,11.2,23.8,17.2,35.5,7.1,13.9,14.7,27.5,22.8,40.8,8.7,14.3,18.2,27.9,30.5,39.6,15.4,14.6,36.3,17.6,56.5,19.3,5.4.5,10.7.8,16.1,1.1ZM831.8,585c-2.5,5.5-5.5,10.6-8.9,15.7-2.4,3.7-5.1,7.3-8.2,10.6-2.5,2.7-5.7,4.2-8.9.7s-.4-.6-.5-1c-1.5-8.8,3.5-15.8,7-23.2,3.7-7.8,8.4-15.2,7.6-24.3-.5-6.4-2.6-12.1-6.6-17.7-1-1.4-3.1-1-3.5.7-.9,3.9-1.7,8.8-2.1,10.3-5.3,21-10.7,41.9-14,63.4-2,12.8-4.2,25.6-5.7,38.5-.3,2.9-.1,5.6,2.3,7.5s.5.3.8.4c3.5.7,6.7,0,10-1.3,7.7-3.1,12.7-9,17.1-15.4,6.2-9.3,10.7-19.6,16.5-29.1,10-16.4,17-33.8,21.4-52.3,6.1-25.6,8.1-51.5,5.2-77.9,0-.3-.1-.6-.3-.9-.9-1.5-2-2.9-3.6-3.7s-.9-.3-1.3-.2c-7.3,1.6-9.8,8.4-13.7,13.3-7.4,9.3-11.4,18.9-5.6,31.5,2.5,5.4,3.9,11.2,4.3,17.1s0,12.4-2,17.9-3.4,9.6-5.3,14.4c-.7,1.7-1.4,3.4-2.2,5ZM254.9,579.5c-2.4-4.9-4.5-10-6.2-14.9-3.9-10.8-6.3-23.5-2.2-34.6,2.3-6.3,5.2-13.1.6-19.3-5.7-7.7-9.8-16.3-14.4-24.6-.6-1.1-1.3-2.1-2.7-1.9s-1.6,1-1.6,1.9c0,12.9-.2,26.1,0,39.3.3,14,3.9,27.3,7.6,40.7,2.7,10,8,18.9,11.9,28.3,3.1,7.3,5.8,14.5,7.3,22.4,2.2,11.3,8.9,20.9,17.4,28.9,1.9,1.8,4.1,4,7,4.1s1.8-.6,2-1.5c.7-3.3.4-6.4,0-9.5-.8-7.6-1.2-12.5-2.1-20.1-.5-4.1-1.5-11.6-5.7-14.8-8.2-6.1-14.3-15.1-19-24.7ZM356.2,807.1c0-.2,0-.4-.2-.6-.8-1.7-1.9-3.1-2.5-5-4.5-15.7-9.4-31.2-14.1-46.8-3-10.1-6.4-20-9.3-30-3-10.3-5.1-20.8-10.1-30.4-2.2-4.2-4.4-8.3-6.7-12.7s-4.5-.7-3.5,1.6,0,0,0,0c5.9,14,6.1,29.3,8.7,43.9,3.4,19,7,37.7,15.7,55,4.9,9.9,11.1,18.8,18.7,26.6s3.5.2,3.3-1.6,0,0,0,0ZM832.6,462.8c-12.2,10.5-15.9,29.1-17,39.2s2.4,3,3.6,1.3.2-.2.2-.3c7.1-10.2,12.9-18.3,22.3-27.1,5.6-5.2,10.5-9.1,18.3-7.4.3,0,.5,0,.8.1,1.1,0,2.1-.7,2.1-1.8.3-3.8.5-12.8-2.4-17.2s-.8-1.1-.8-1.1c-2.6-.5-4.1,0-6.5.6-8.1,2.2-14,7.5-20.5,13.7ZM243,476.1c1.4,1.7,2.7,3.4,3.9,5.2,2.7,4.1,5.7,7.9,8.4,12s2.9.5,3.2-1c1.9-9.2-1.4-18.4-6.9-25.7-4.9-6.5-11.5-12-19.4-14.4-3.2-1-4.4,1.6-4.9,4.4-.5,2.7,2,5.9,3.7,7.8,1.7,1.9,3.8,3.4,5.7,5.1,2.2,2.1,4.3,4.3,6.3,6.6Z"/>
      <path d="M465.4,487.2c-4.6-4.8-8.1-10.1-12.1-15.4-2.7-3.5-5.8-6.8-9.6-9.1-6.1-3.8-13-4.6-19.5-6.8-15-5-30.3-9.2-45.6-13.2-9.5-2.5-19.2-4.3-28.9-6.1-12.2-2.3-21.9,2.5-31.2,10.3-6,5-11.8,10-16.5,16s-2.4,1.2-3.5.4c-3.7-2.9-4.7-8.7-1.7-13.3,8.7-13.4,17.8-26.5,26.8-39.6,4-5.9,10-7.9,16.8-8.1,7.5-.1,14.6,1.6,21.9,3.1,11,2.2,21.3,6.5,32.4,8,5.8.8,11.6,3.2,17.3,4.9,14.6,4.2,29.6,6.9,43.9,12.1,5.5,2,11.3,2.8,16.9,4.2,11.9,3,18.5,11.1,22.9,21.6,7.9,18.7,10.7,38.2,8.9,58.4-.8,9.2,0,18.5-.7,27.6-1.1,15.2-2.1,30.4-4.3,45.4-1.3,9.2-4.8,18.1-7.1,27.2-1.3,5.2-2.2,10.6-2.7,15.8-.6,6.8,1.8,13.3,8.3,17.2,8,4.8,15,11,22.5,16.4,3.2,2.3,6.5,2.6,10.2,2,7.9-1.1,14.9-3.5,21.7-8,8.2-5.5,17.9-8.1,28.1-7.6,3.3.1,6.8.6,11.2-1,5.3-12.4,1.6-24.9-1.5-37.5s0-1.3.3-1.8c.6-.8,1.3-1.2,2.4-1.5s1.2,0,1.6.3c5,3.8,7.9,9.3,10,15.1,4,10.7,7.8,21.3,2.5,33.1-3.6,7.9-9.4,11.8-17.5,12.6-8.3.8-16.6,1.2-23.9,5.5-5.9,3.5-12,7-17.2,11.4-15.4,12.9-32.7,17.2-52.1,12.7-6.5-1.5-12.3-5.1-17.8-8.9-9.1-6.1-18.7-11.4-28.3-16.8-11.4-6.4-13.2-18.3-11.6-29.7,1.8-12.9,7-25.1,13.4-36.3,2-3.6,5.2-6.2,7.6-9.5,5.2-7.4,4.2-17.4,5.4-26s4.1-20.1,6.2-30.2c3.3-15.8,2.1-31.7,2.4-47.8,0-2.5-5.5-4.2-7.2-5.8-.4-.4-.9-.9-1.3-1.3ZM459.9,640.4c1.4,1.7,3.8,2.7,6.2,1.5s.3-.2.3-.3c1.9-2.9.8-7-.8-7.6-2.1-.2-4.6,2.5-5.8,5.7s0,.6,0,.8Z"/>
      <path d="M620.3,461.8c-13.8,4-21.7,14.9-29.9,25.4-.4.5-1,.8-1.6,1.2-2.8,1.8-5.7-.5-5.5-4.1s-.6-1.4-1.4-1.4c-2-.1-4.1.3-6,1.4s-2.9,2.5-3.7,4.3c-7.6,17.8-5.3,38.3-9.3,58s-1.7,1.7-2.6.8-1.1-2.6-1.4-4.3c-2.3-13.4-.9-26.9-1.4-40.3-.4-10.9,2.1-21.6,4.4-32.1s1-20.1,5.9-27.3c.1-.2,1.7-1.6,1.6-.9-.3,4.3,5.4-1.5,8-3.1,6.4-3.8,12.9-6.8,20.5-7.7,7.9-1,15.5-4.1,23.3-6.1,21.9-5.5,43.5-11.8,65.4-17.5,10.8-2.8,21.7-5.1,32.7-7,5.6-1,11.7.4,16,3.9,9.7,8.1,19.9,15.8,27.2,26.5,3.7,5.4,5.4,11.1,5.7,17.4-1.2,2.6-3.4,2.9-5.7,1.9-2.2-.9-4.6-1.6-6.7-3-8.4-5.6-17.9-9.8-28-10.9s-22.1,1.9-32.8,4.1c-23,4.9-45.4,11.8-67.9,18.5-2.4.7-4.7,1.4-7.1,2.1Z"/>
      <path d="M470.8,748.3c-21.1-.7-41.3-2.7-59.7-12.8-1.3-.7-3.2-.9-4.6-.6-3.7.9-7.1.1-10.5-1.1s-4.4-2.7-5.2-5.2-1-5.2-.3-7.9,2.3-4.4,4.6-5.6.5-.2.7-.3c1.7-.8,3.5-1.2,5.4-.8,6.5,1.1,12.4,3.3,17.6,8.2,4.9,4.6,11.3,7,18.4,6.9,11.5-.2,23-.1,34.4,0,12.1.1,24.1,1.9,36.1,3.5,10.5,1.4,21.2,1.7,31.6.1,18.5-2.8,37-4,55.7-3.7,15.3.2,30.5-1.1,45.4-4.1,5.3-1.1,12.9-4,16.3-8.6,3.4-4.6,7.5-7.8,13.5-5.4,6.6,2.7,10.8,10.8,5.6,17.9-2.9,3.9-7.7,5.2-12.3,4.8-5.2-.4-10.1,0-15,2.5-11.6,5.8-24.4,6.8-37.1,8.2-23.7,2.5-47.4,2.9-71.1,4.4-23,1.4-45.8-1.9-69.3-.3Z"/>
      <path d="M643.4,476.4c9.3-1.3,18.8-2,28.1-.8,2.9.4,5.8,1,8.6,1.5,12.5,2.3,25.2,3.9,37.1,8.3,10.3,3.9,20.1,9,28.6,15.8s1.2,1.8.8,2.8c-1.1,2.7-3.5,3.5-5.9,3.8-3.3.3-7,.7-10-.4-8.6-3.3-17.7-4.8-26.4-7.4-4.2-1.2-8.2-1.4-12.5-1.3s-1.9.6-2.2,1.5c-2.5,6.1-7.8,11-14.6,11.6-4.9.4-9.7.4-14.6,0s-9.8-.7-14.2-2.5c-2.1-.8-4.1-1.9-5.5-3.7-1.5-1.8-1.4-3.6-1.9-5.7s-.6-3.7-1.8-5.4c-.6-.8-3.1-1.3-4.1-1.1-5.7,1.2-10.7,4.4-15.9,6.8-3.2,1.5-6.6,2.1-10.1,2.3s-7.1.3-10.1-.7-2.8-1.5-3.4-2.9c-1.7-4.6,4.8-8.1,7.8-10.2,3.4-2.4,7.1-4.3,10.9-5.9,9.2-3.7,19.2-4.9,28.9-6.3s1.6-.2,2.4-.3Z"/>
      <path d="M464,489c1.9,3,.3,3.6-1.1,4.4s-2.9-.8-3.7-.6c-.7.5.4,1.7,1.1,2.2,5.4,3.8,2.7,7.7-2,10.7s-1.3.5-2,.2c-6.6-2.8-12.5-7-18.6-10.9-3.8-2.5-7.3-2.7-11.1-.6,3.1,8.2-4.5,14.9-17.6,17.2-6.6,1.1-13.4.8-20.1-.2-5.5-.9-9.5-3.6-11.7-8.9-.5-1.2-1.2-2.5-2.5-3.2-4.4-1.8-8.2-1.2-13.7-2.5-10,4.7-21,6.8-29,8.8-7.6,1.6-11.8.4-15-4.9,3.9-3.7,8.1-5.3,12.3-7.6,10.4-5.6,21.5-9.4,32.7-13.4,21.3-7.5,42.7-4.3,64.1-4.3,13.2,0,25.6,5.5,37.3,12.6.4.3.5.7.5.7Z"/>
      <path d="M598.7,781.1c-14.9,17.5-32.9,26.9-56.2,27-12.8,0-25.6.3-38.3-.4-18.7-1-33.4-9.9-45.4-23.7-1-1.1-2.3-2.2-2-4.1,1.1-1.9,2.6-2,4.6-1.3,17,5.9,34.9,5.1,52.5,6.4,15.5,1.2,30.8.3,46.3-1.5,11.1-1.3,22.1-2.1,33.1-4.3,1.7-.3,4.6-1.7,5.5,1.9Z"/>
      <path d="M713.2,704c0,.3,0,.6,0,.9-.3,4-.9,8.1-1.7,12s-2.3,6.6-5.2,8.4c-1.2.7-2.8.3-3.4-1-1.6-3.4-1.5-7.2-1.8-10.7-1.2-14.7-8.3-28.2-20.2-37-2.8-2-5.6-3.7-8.1-6.1s-4.3-5-5.3-8.1c-.3-.9,0-1.9.7-2.5,2.8-2.3,6.1-1.6,9-.9,13.1,3.3,24.4,11.3,31.4,22.9,4,6.7,5.2,14.3,4.8,22Z"/>
      <path d="M379.6,669.9c3.9-2.7,12.1-7.2,14.6-1.6,1,2.3.3,4.3-2.2,7-5.1,5.6-10.3,11.1-13.1,18.4-1.7,4.5-2.8,9.1-3,13.6-.2,4.4-1.5,8.1-3.4,11.7s-8,3.3-9-1.1,0-.2,0-.2c-1.6-7.4-2.3-15.2-.8-22.7s5.6-14.9,11.6-20.6,2.8-2.6,4.4-3.8c.3-.2.6-.5,1-.7Z"/>
      <path d="M640.3,543.8c-2-.6-3.9-1.2-5.7-2-1.3-.5-2.6-1.2-3.6-2.1-.5-.4-1-.9-1.4-1.4-1-1.4.6-1.7.6-1.7,0,0,.1,0,.9,0,1.3,0,2.7.2,4,.2,12.1.8,24,2.6,36.1,2.6,3.9,0,7.7,0,11.6-.3s7.5-.5,11.4-.2c1.7.1,2.3,2.2,1.1,3.3s-1.1,1-1.3,1.1c-1.7,1-3.5,1.8-5.4,2.3-8.3,2.2-17.8,1.9-26.2,1.3-7.1-.5-14.9-1.3-21.9-3.2Z"/>
      <path d="M419.9,536.7c1.3-.3,2.6-.7,3.8-.2.8.3,1.1,1.3.6,2.1-6.5,9.1-37,11.4-50.2,3.6s-1-3.2.8-3.3c4.5-.3,9,.4,13.6.5,4.1,0,16.9.2,31.5-2.7Z"/>
      <path d="M517.6,424.9c0-6.2-.4-12.4.2-18.7s1.6-1.6,2.3-.7c4.6,5.7,2.2,12.6,4,18.2,2,6.1-1.4,11.4-3.7,17.9s-2.2,1.2-2.5-.1c-.9-4-.3-8-.3-12.1,0-1.5,0-3,0-4.5Z"/>
    </g>
  </g>
</svg>